<svg width="187" height="187" viewBox="0 0 187 187" fill="none" xmlns="http://www.w3.org/2000/svg">
<g filter="url(#filter0_d_304_1117)">
<path d="M93.3562 17.208C129.275 17.208 158.356 46.2895 158.356 82.208C158.356 118.127 129.275 147.208 93.3562 147.208C57.4377 147.208 28.3562 118.127 28.3562 82.208C28.3562 46.2895 57.4377 17.208 93.3562 17.208Z" fill="#343434" shape-rendering="crispEdges"/>
<path d="M93.3562 17.208C129.275 17.208 158.356 46.2895 158.356 82.208C158.356 118.127 129.275 147.208 93.3562 147.208C57.4377 147.208 28.3562 118.127 28.3562 82.208C28.3562 46.2895 57.4377 17.208 93.3562 17.208Z" stroke="black" stroke-opacity="0.1" stroke-width="4.92298" shape-rendering="crispEdges"/>
</g>
<mask id="mask0_304_1117" style="mask-type:alpha" maskUnits="userSpaceOnUse" x="54" y="38" width="83" height="83">
<rect x="54.376" y="38.271" width="81.7762" height="81.7762" fill="#A0A0A0"/>
</mask>
<g mask="url(#mask0_304_1117)">
<mask id="mask1_304_1117" style="mask-type:alpha" maskUnits="userSpaceOnUse" x="54" y="38" width="83" height="83">
<rect x="54.376" y="38.2705" width="81.7762" height="81.7762" fill="#A0A0A0"/>
</mask>
<g mask="url(#mask1_304_1117)">
<path d="M107.19 96.1956C108.61 96.1956 109.816 95.6987 110.81 94.7049C111.804 93.7111 112.301 92.5043 112.301 91.0846C112.301 89.6648 111.804 88.4581 110.81 87.4643C109.816 86.4705 108.61 85.9736 107.19 85.9736C105.77 85.9736 104.563 86.4705 103.569 87.4643C102.576 88.4581 102.079 89.6648 102.079 91.0846C102.079 92.5043 102.576 93.7111 103.569 94.7049C104.563 95.6987 105.77 96.1956 107.19 96.1956ZM76.5237 96.1956C77.9434 96.1956 79.1502 95.6987 80.144 94.7049C81.1378 93.7111 81.6347 92.5043 81.6347 91.0846C81.6347 89.6648 81.1378 88.4581 80.144 87.4643C79.1502 86.4705 77.9434 85.9736 76.5237 85.9736C75.104 85.9736 73.8972 86.4705 72.9034 87.4643C71.9096 88.4581 71.4127 89.6648 71.4127 91.0846C71.4127 92.5043 71.9096 93.7111 72.9034 94.7049C73.8972 95.6987 75.104 96.1956 76.5237 96.1956ZM112.301 79.1589C107.587 79.1589 103.569 77.4978 100.247 74.1756C96.9252 70.8535 95.2641 66.8357 95.2641 62.1222C95.2641 57.4655 96.911 53.4618 100.205 50.1113C103.499 46.7607 107.531 45.0854 112.301 45.0854C117.014 45.0854 121.032 46.7465 124.354 50.0687C127.676 53.3908 129.338 57.4087 129.338 62.1222C129.338 66.8357 127.676 70.8535 124.354 74.1756C121.032 77.4978 117.014 79.1589 112.301 79.1589ZM110.597 65.5295H114.004V51.9001H110.597V65.5295ZM112.301 72.3442C112.755 72.3442 113.153 72.1738 113.493 71.8331C113.834 71.4924 114.004 71.0948 114.004 70.6405C114.004 70.1862 113.834 69.7887 113.493 69.448C113.153 69.1072 112.755 68.9368 112.301 68.9368C111.847 68.9368 111.449 69.1072 111.108 69.448C110.768 69.7887 110.597 70.1862 110.597 70.6405C110.597 71.0948 110.768 71.4924 111.108 71.8331C111.449 72.1738 111.847 72.3442 112.301 72.3442ZM88.705 65.5295H74.3089L70.7312 75.7515H92.7938C93.7592 77.1145 94.8382 78.378 96.0308 79.5422C97.2233 80.7064 98.5579 81.7144 100.034 82.5662H68.0054V99.6029H115.708V85.718C116.901 85.5476 118.065 85.2921 119.201 84.9514C120.336 84.6106 121.444 84.1847 122.523 83.6736V109.825C122.523 110.79 122.196 111.6 121.543 112.253C120.89 112.906 120.081 113.232 119.115 113.232H115.708C114.743 113.232 113.934 112.906 113.28 112.253C112.627 111.6 112.301 110.79 112.301 109.825V106.418H71.4127V109.825C71.4127 110.79 71.0862 111.6 70.4331 112.253C69.78 112.906 68.9708 113.232 68.0054 113.232H64.598C63.6326 113.232 62.8234 112.906 62.1703 112.253C61.5172 111.6 61.1907 110.79 61.1907 109.825V82.5662L68.3461 62.1222C68.6868 61.1 69.2973 60.2765 70.1775 59.6518C71.0578 59.0272 72.0374 58.7148 73.1164 58.7148H81.6347V51.9001H90.7494C90.0111 53.4902 89.4432 55.1371 89.0457 56.8408C88.6482 58.5445 88.4494 60.3049 88.4494 62.1222C88.4494 62.7468 88.4636 63.3289 88.492 63.8684C88.5204 64.4079 88.5914 64.9616 88.705 65.5295Z" fill="white"/>
</g>
</g>
<defs>
<filter id="filter0_d_304_1117" x="-2.47955e-05" y="0.000227928" width="186.712" height="186.712" filterUnits="userSpaceOnUse" color-interpolation-filters="sRGB">
<feFlood flood-opacity="0" result="BackgroundImageFix"/>
<feColorMatrix in="SourceAlpha" type="matrix" values="0 0 0 0 0 0 0 0 0 0 0 0 0 0 0 0 0 0 127 0" result="hardAlpha"/>
<feOffset dy="11.1484"/>
<feGaussianBlur stdDeviation="12.9474"/>
<feComposite in2="hardAlpha" operator="out"/>
<feColorMatrix type="matrix" values="0 0 0 0 0 0 0 0 0 0 0 0 0 0 0 0 0 0 0.1 0"/>
<feBlend mode="normal" in2="BackgroundImageFix" result="effect1_dropShadow_304_1117"/>
<feBlend mode="normal" in="SourceGraphic" in2="effect1_dropShadow_304_1117" result="shape"/>
</filter>
</defs>
</svg>
