<svg width="31" height="31" viewBox="0 0 31 31" fill="none" xmlns="http://www.w3.org/2000/svg">
<path d="M11.3835 22.7658V6.3231L26.5614 3.79346V20.2361" stroke="#A0A0A5" stroke-width="2.52964" stroke-linecap="round" stroke-linejoin="round"/>
<path d="M7.5889 26.5606C9.68453 26.5606 11.3834 24.8618 11.3834 22.7661C11.3834 20.6705 9.68453 18.9717 7.5889 18.9717C5.49327 18.9717 3.79443 20.6705 3.79443 22.7661C3.79443 24.8618 5.49327 26.5606 7.5889 26.5606Z" stroke="#A0A0A5" stroke-width="2.52964" stroke-linecap="round" stroke-linejoin="round"/>
<path d="M22.7672 24.0318C24.8629 24.0318 26.5617 22.333 26.5617 20.2373C26.5617 18.1417 24.8629 16.4429 22.7672 16.4429C20.6716 16.4429 18.9728 18.1417 18.9728 20.2373C18.9728 22.333 20.6716 24.0318 22.7672 24.0318Z" stroke="#A0A0A5" stroke-width="2.52964" stroke-linecap="round" stroke-linejoin="round"/>
</svg>
