<svg width="31" height="31" viewBox="0 0 31 31" fill="none" xmlns="http://www.w3.org/2000/svg">
<path d="M17.7079 22.7661V7.58824C17.7079 6.91733 17.4414 6.27391 16.967 5.79951C16.4926 5.32511 15.8492 5.05859 15.1783 5.05859H5.05967C4.38877 5.05859 3.74535 5.32511 3.27094 5.79951C2.79654 6.27391 2.53003 6.91733 2.53003 7.58824V21.5013C2.53003 21.8367 2.66329 22.1584 2.90049 22.3956C3.13769 22.6328 3.4594 22.7661 3.79485 22.7661H6.3245" stroke="#A0A0A5" stroke-width="2.52964" stroke-linecap="round" stroke-linejoin="round"/>
<path d="M18.9725 22.7661H11.3835" stroke="#A0A0A5" stroke-width="2.52964" stroke-linecap="round" stroke-linejoin="round"/>
<path d="M24.0316 22.7664H26.5613C26.8967 22.7664 27.2184 22.6331 27.4556 22.3959C27.6928 22.1587 27.8261 21.837 27.8261 21.5016V16.885C27.8256 16.5979 27.7275 16.3196 27.5478 16.0957L23.1463 10.5937C23.028 10.4456 22.8779 10.326 22.7071 10.2436C22.5364 10.1613 22.3493 10.1184 22.1597 10.1182H17.7075" stroke="#A0A0A5" stroke-width="2.52964" stroke-linecap="round" stroke-linejoin="round"/>
<path d="M21.5023 25.2966C22.8994 25.2966 24.0319 24.164 24.0319 22.7669C24.0319 21.3699 22.8994 20.2373 21.5023 20.2373C20.1052 20.2373 18.9727 21.3699 18.9727 22.7669C18.9727 24.164 20.1052 25.2966 21.5023 25.2966Z" stroke="#A0A0A5" stroke-width="2.52964" stroke-linecap="round" stroke-linejoin="round"/>
<path d="M8.85362 25.2966C10.2507 25.2966 11.3833 24.164 11.3833 22.7669C11.3833 21.3699 10.2507 20.2373 8.85362 20.2373C7.45653 20.2373 6.32397 21.3699 6.32397 22.7669C6.32397 24.164 7.45653 25.2966 8.85362 25.2966Z" stroke="#A0A0A5" stroke-width="2.52964" stroke-linecap="round" stroke-linejoin="round"/>
</svg>
