<svg width="37" height="37" viewBox="0 0 37 37" fill="none" xmlns="http://www.w3.org/2000/svg">
<path d="M4.55371 13.6592L18.2138 3.03467L31.8739 13.6592V30.3548C31.8739 31.1599 31.554 31.932 30.9848 32.5013C30.4155 33.0706 29.6434 33.3904 28.8383 33.3904H7.58928C6.7842 33.3904 6.01209 33.0706 5.44281 32.5013C4.87353 31.932 4.55371 31.1599 4.55371 30.3548V13.6592Z" stroke="#A0A0A5" stroke-width="3.03557"/>
<path d="M13.6597 33.3908V18.2129H22.7664V33.3908" stroke="#A0A0A5" stroke-width="3.03557"/>
<path d="M18.2137 25.0431C19.4711 25.0431 20.4904 24.0238 20.4904 22.7664C20.4904 21.5091 19.4711 20.4897 18.2137 20.4897C16.9563 20.4897 15.937 21.5091 15.937 22.7664C15.937 24.0238 16.9563 25.0431 18.2137 25.0431Z" fill="#A0A0A5" stroke="#A0A0A5" stroke-width="3.03557"/>
</svg>
