<svg width="19" height="19" viewBox="0 0 19 19" fill="none" xmlns="http://www.w3.org/2000/svg">
<path d="M7.58928 15.177L6.64067 13.2798L4.55371 13.6592" stroke="#99A1AF" stroke-width="1.51779" stroke-linecap="round" stroke-linejoin="round"/>
<path d="M7.58928 3.03418L6.64067 4.93141L4.55371 4.55197" stroke="#99A1AF" stroke-width="1.51779" stroke-linecap="round" stroke-linejoin="round"/>
<path d="M10.6248 15.177L11.5734 13.2798L13.6603 13.6592" stroke="#99A1AF" stroke-width="1.51779" stroke-linecap="round" stroke-linejoin="round"/>
<path d="M10.6248 3.03418L11.5734 4.93141L13.6603 4.55197" stroke="#99A1AF" stroke-width="1.51779" stroke-linecap="round" stroke-linejoin="round"/>
<path d="M12.9014 15.9352L10.6247 11.3818H7.58911" stroke="#99A1AF" stroke-width="1.51779" stroke-linecap="round" stroke-linejoin="round"/>
<path d="M12.9014 2.27637L10.6248 6.82973L11.7631 9.10641" stroke="#99A1AF" stroke-width="1.51779" stroke-linecap="round" stroke-linejoin="round"/>
<path d="M1.51782 9.1048H6.45063L7.58897 6.82812" stroke="#99A1AF" stroke-width="1.51779" stroke-linecap="round" stroke-linejoin="round"/>
<path d="M15.1784 7.58789L14.04 9.10568L15.1784 10.6235" stroke="#99A1AF" stroke-width="1.51779" stroke-linecap="round" stroke-linejoin="round"/>
<path d="M16.6959 9.10498H11.7631L10.6248 11.3817" stroke="#99A1AF" stroke-width="1.51779" stroke-linecap="round" stroke-linejoin="round"/>
<path d="M3.0354 7.58789L4.17374 9.10568L3.0354 10.6235" stroke="#99A1AF" stroke-width="1.51779" stroke-linecap="round" stroke-linejoin="round"/>
<path d="M5.31226 15.935L7.58894 11.3817L6.4506 9.10498" stroke="#99A1AF" stroke-width="1.51779" stroke-linecap="round" stroke-linejoin="round"/>
<path d="M5.31226 2.27637L7.58894 6.82973H10.6245" stroke="#99A1AF" stroke-width="1.51779" stroke-linecap="round" stroke-linejoin="round"/>
</svg>
