<svg width="31" height="31" viewBox="0 0 31 31" fill="none" xmlns="http://www.w3.org/2000/svg">
<path d="M24.0322 11.3827V7.58824C24.0322 6.91733 23.7657 6.27391 23.2913 5.79951C22.8169 5.32511 22.1735 5.05859 21.5026 5.05859H8.85435C8.18345 5.05859 7.54002 5.32511 7.06562 5.79951C6.59122 6.27391 6.32471 6.91733 6.32471 7.58824V11.3827" stroke="#A0A0A5" stroke-width="2.52964" stroke-linecap="round" stroke-linejoin="round"/>
<path d="M3.79395 20.2375C3.79395 20.9084 4.06046 21.5519 4.53486 22.0263C5.00926 22.5007 5.65269 22.7672 6.32359 22.7672H24.0311C24.702 22.7672 25.3454 22.5007 25.8198 22.0263C26.2942 21.5519 26.5607 20.9084 26.5607 20.2375V13.9134C26.5607 13.2425 26.2942 12.5991 25.8198 12.1247C25.3454 11.6503 24.702 11.3838 24.0311 11.3838C23.3602 11.3838 22.7168 11.6503 22.2424 12.1247C21.768 12.5991 21.5015 13.2425 21.5015 13.9134V15.8107C21.5015 15.9784 21.4348 16.1392 21.3162 16.2578C21.1976 16.3764 21.0368 16.4431 20.869 16.4431H9.48564C9.31792 16.4431 9.15706 16.3764 9.03846 16.2578C8.91986 16.1392 8.85323 15.9784 8.85323 15.8107V13.9134C8.85323 13.2425 8.58672 12.5991 8.11232 12.1247C7.63792 11.6503 6.99449 11.3838 6.32359 11.3838C5.65269 11.3838 5.00926 11.6503 4.53486 12.1247C4.06046 12.5991 3.79395 13.2425 3.79395 13.9134V20.2375Z" stroke="#A0A0A5" stroke-width="2.52964" stroke-linecap="round" stroke-linejoin="round"/>
<path d="M6.32471 22.7661V25.2958" stroke="#A0A0A5" stroke-width="2.52964" stroke-linecap="round" stroke-linejoin="round"/>
<path d="M24.031 22.7661V25.2958" stroke="#A0A0A5" stroke-width="2.52964" stroke-linecap="round" stroke-linejoin="round"/>
</svg>
