<svg width="31" height="31" viewBox="0 0 31 31" fill="none" xmlns="http://www.w3.org/2000/svg">
<path d="M27.8263 21.4011V25.1955C27.8277 25.5478 27.7556 25.8964 27.6145 26.2192C27.4734 26.542 27.2664 26.8317 27.0068 27.0698C26.7472 27.308 26.4408 27.4893 26.1071 27.6021C25.7734 27.715 25.4198 27.7569 25.069 27.7252C21.1769 27.3023 17.4383 25.9723 14.1536 23.8422C11.0976 21.9002 8.50658 19.3093 6.56466 16.2532C4.42708 12.9536 3.09682 9.19678 2.68165 5.28722C2.65005 4.93745 2.69161 4.58494 2.80371 4.25212C2.9158 3.9193 3.09597 3.61347 3.33274 3.35409C3.56951 3.09472 3.85769 2.88748 4.17894 2.74559C4.50019 2.60369 4.84746 2.53024 5.19865 2.52991H8.99312C9.60694 2.52387 10.202 2.74123 10.6674 3.14149C11.1329 3.54175 11.4368 4.09759 11.5228 4.7054C11.6829 5.91972 11.9799 7.11201 12.4081 8.25955C12.5783 8.71226 12.6151 9.20427 12.5143 9.67727C12.4134 10.1503 12.179 10.5844 11.839 10.9283L10.2326 12.5347C12.0332 15.7012 14.655 18.323 17.8216 20.1236L19.4279 18.5173C19.7718 18.1772 20.206 17.9428 20.679 17.842C21.152 17.7411 21.644 17.7779 22.0967 17.9481C23.2442 18.3763 24.4365 18.6733 25.6508 18.8335C26.2652 18.9201 26.8264 19.2296 27.2275 19.703C27.6286 20.1764 27.8417 20.7808 27.8263 21.4011Z" stroke="#A0A0A5" stroke-width="2.52964" stroke-linecap="round" stroke-linejoin="round"/>
</svg>
