<svg width="109" height="109" viewBox="0 0 109 109" fill="none" xmlns="http://www.w3.org/2000/svg">
<path d="M54.4036 1.94287C83.3927 1.94287 106.864 25.414 106.864 54.4031C106.864 83.3923 83.3927 106.863 54.4036 106.863C25.4145 106.863 1.94336 83.3923 1.94336 54.4031C1.94336 25.414 25.4145 1.94287 54.4036 1.94287Z" stroke="black" stroke-opacity="0.1" stroke-width="3.88594"/>
<path d="M54.4034 66.0616C57.5121 66.0616 60.4659 64.8185 62.642 62.6424C64.8181 60.4663 66.0612 57.5125 66.0612 54.4038V38.86C66.0612 35.7512 64.8181 32.7975 62.642 30.6213C60.4659 28.4452 57.5121 27.2021 54.4034 27.2021C51.2946 27.2021 48.3408 28.4452 46.1647 30.6213C43.9886 32.7975 42.7455 35.7512 42.7455 38.86V54.4038C42.7455 57.5125 43.9886 60.4663 46.1647 62.6424C48.3408 64.8185 51.2946 66.0616 54.4034 66.0616ZM46.6315 38.86C46.6315 36.8004 47.4469 34.818 48.9236 33.3802C50.3614 31.9035 52.3438 31.0881 54.4034 31.0881C56.4629 31.0881 58.4453 31.9035 59.8831 33.3802C61.3598 34.818 62.1752 36.8004 62.1752 38.86V54.4038C62.1752 56.4633 61.3598 58.4457 59.8831 59.8835C58.4453 61.3602 56.4629 62.1756 54.4034 62.1756C52.3438 62.1756 50.3614 61.3602 48.9236 59.8835C47.4469 58.4457 46.6315 56.4633 46.6315 54.4038V38.86ZM62.0395 72.267C58.9543 73.5928 56.3463 76.3043 56.3463 79.6624C56.3463 80.1676 56.1524 80.6731 55.7638 81.0228C55.4141 81.4114 54.9085 81.6054 54.4034 81.6054C53.8982 81.6054 53.3926 81.4114 53.0429 81.0228C52.6543 80.6731 52.4604 80.1676 52.4604 79.6624C52.4604 76.3043 49.8524 73.5928 46.7672 72.267C44.204 71.1655 41.8809 69.5217 39.9867 67.422C36.7613 63.847 34.9736 59.2223 34.9736 54.4038C34.9736 53.8986 35.1676 53.393 35.5561 53.0433C35.9059 52.6547 36.4114 52.4608 36.9166 52.4608C37.4218 52.4608 37.9273 52.6547 38.2771 53.0433C38.6657 53.393 38.8596 53.8986 38.8596 54.4038C38.8596 58.5229 40.4914 62.4868 43.4058 65.4013C46.3203 68.3157 50.2843 69.9475 54.4034 69.9475C58.5225 69.9475 62.4864 68.3157 65.4009 65.4013C68.3153 62.4868 69.9471 58.5229 69.9471 54.4038C69.9471 53.8986 70.141 53.393 70.5296 53.0433C70.8794 52.6547 71.3849 52.4608 71.8901 52.4608C72.3953 52.4608 72.9008 52.6547 73.2506 53.0433C73.6392 53.393 73.8331 53.8986 73.8331 54.4038C73.8331 59.2223 72.0454 63.847 68.82 67.422C66.9258 69.5217 64.6027 71.1655 62.0395 72.267Z" fill="#99A1AF"/>
</svg>
